<svg id="Layer_1" data-name="Layer 1" xmlns="http://www.w3.org/2000/svg" viewBox="0 0 330 56"><defs><style>.cls-1{fill:#ffa41b;}.cls-2{fill:#fff;}</style></defs><path class="cls-1" d="M85,16,80.74,43H77l4.28-27Z"/><path class="cls-1" d="M103.91,35.74a2.25,2.25,0,0,0,0,1.31,1.23,1.23,0,0,0,.74.62l-1.27,2.66a4.88,4.88,0,0,1-2.07-.62,2.51,2.51,0,0,1-1.13-1.5,6.85,6.85,0,0,1-2.51,1.63,8.4,8.4,0,0,1-2.93.54A4.54,4.54,0,0,1,91.19,39a4.14,4.14,0,0,1-.85-3.55,5.33,5.33,0,0,1,2.58-3.88,11,11,0,0,1,5.8-1.35h2.16l.13-.82a2,2,0,0,0-.53-2,3.73,3.73,0,0,0-2.34-.62A11.53,11.53,0,0,0,96.2,27a18.78,18.78,0,0,0-2.43.61l-.52-2.73A18.4,18.4,0,0,1,96.42,24a16.63,16.63,0,0,1,2.82-.27c2.22,0,3.8.47,4.72,1.41a4.36,4.36,0,0,1,1,4Zm-7.36,1.73A4.14,4.14,0,0,0,98.41,37,4.32,4.32,0,0,0,100,35.59l.48-3H99a6.08,6.08,0,0,0-3.21.69,2.77,2.77,0,0,0-1.27,2,2,2,0,0,0,.35,1.65A2.11,2.11,0,0,0,96.55,37.47Z"/><path class="cls-1" d="M108.41,39.92l2.49-15.69h3.48v1.92a8.55,8.55,0,0,1,2.55-1.78,6.73,6.73,0,0,1,2.79-.6,3.6,3.6,0,0,1,3,1.22,4.33,4.33,0,0,1,.58,3.45l-1.8,11.48h-4l1.58-10a8.92,8.92,0,0,0,.14-1.86,1.39,1.39,0,0,0-.39-1,1.74,1.74,0,0,0-1.13-.3,3,3,0,0,0-1.24.27,5.35,5.35,0,0,0-1.19.73,10.44,10.44,0,0,0-1.1,1l-1.76,11.11Z"/><path class="cls-1" d="M130.05,37.28a3.56,3.56,0,0,1,.66-1.55A4,4,0,0,1,132,34.61a3.39,3.39,0,0,1,1.62-.41,2.74,2.74,0,0,1,1.5.41,2.49,2.49,0,0,1,.93,1.12,2.66,2.66,0,0,1,.17,1.55,3.35,3.35,0,0,1-.65,1.54,4.15,4.15,0,0,1-1.3,1.13,3.23,3.23,0,0,1-1.63.43,2.59,2.59,0,0,1-1.48-.43,2.47,2.47,0,0,1-.94-1.13A2.8,2.8,0,0,1,130.05,37.28Z"/><path class="cls-2" d="M156.14,16l-4.29,27h-3.7l4.28-27Z"/><path class="cls-2" d="M170.69,21.93,172,24.76l-10.8,5.87,9,5.8-2.32,2.86-10.34-7.12.49-3.08Z"/><path class="cls-2" d="M187.46,35.74a2.43,2.43,0,0,0,0,1.31,1.3,1.3,0,0,0,.74.62L187,40.33a4.88,4.88,0,0,1-2.07-.62,2.56,2.56,0,0,1-1.14-1.5,6.85,6.85,0,0,1-2.51,1.63,8.18,8.18,0,0,1-2.93.54,4.54,4.54,0,0,1-3.6-1.37,4.17,4.17,0,0,1-.85-3.55,5.37,5.37,0,0,1,2.59-3.88,10.87,10.87,0,0,1,5.8-1.35h2.16l.13-.82a2,2,0,0,0-.54-2,3.67,3.67,0,0,0-2.34-.62,10.46,10.46,0,0,0-1.93.21,18.78,18.78,0,0,0-2.43.61l-.52-2.73A18.51,18.51,0,0,1,180,24a16.63,16.63,0,0,1,2.82-.27c2.23,0,3.8.47,4.73,1.41a4.33,4.33,0,0,1,1,4Zm-7.35,1.73A4,4,0,0,0,182,37a4.35,4.35,0,0,0,1.62-1.39l.48-3h-1.5a6.08,6.08,0,0,0-3.21.69,2.77,2.77,0,0,0-1.27,2,2,2,0,0,0,.35,1.65A2.09,2.09,0,0,0,180.11,37.47Z"/><path class="cls-2" d="M207.4,23.91a6.54,6.54,0,0,0-1.32-.11,5.89,5.89,0,0,0-3.43,1,9.16,9.16,0,0,0-2.64,3l-.18-3.58H194.6L194.17,27h2.18l-1.62,10.19h-2.17L192.12,40h9.32l.43-2.76h-3.14l.82-5.15A10.32,10.32,0,0,1,202,28.6a4.48,4.48,0,0,1,2.65-1.23l-.48,3h2.67l1.69-6.18A5.49,5.49,0,0,0,207.4,23.91Z"/><path class="cls-2" d="M220.49,23.77a4.5,4.5,0,0,1,3.15,1A4.8,4.8,0,0,1,225,27.66a14.3,14.3,0,0,1-.12,4.38,13.8,13.8,0,0,1-1.37,4.29,8.1,8.1,0,0,1-2.51,3,5.77,5.77,0,0,1-3.47,1.09A4.08,4.08,0,0,1,214,38.67L212.79,46l-4.07.43,3.51-22.16h3.52l-.09,1.88A7.55,7.55,0,0,1,218,24.33,6.11,6.11,0,0,1,220.49,23.77Zm-1.66,3a3.05,3.05,0,0,0-1.8.59,7,7,0,0,0-1.52,1.46l-1.11,7a3.06,3.06,0,0,0,1,1.17,2.46,2.46,0,0,0,1.44.4,3,3,0,0,0,2.45-1.23,8.84,8.84,0,0,0,1.42-4A12.34,12.34,0,0,0,220.9,29a2.57,2.57,0,0,0-.66-1.66,2,2,0,0,0-1.41-.59Z"/><path class="cls-2" d="M236.63,23.77a6.54,6.54,0,0,1,3.83,1,5.19,5.19,0,0,1,2,2.88,9.92,9.92,0,0,1,.16,4.37,11.83,11.83,0,0,1-1.57,4.42,8.31,8.31,0,0,1-3,2.89,8.21,8.21,0,0,1-4.14,1,6.79,6.79,0,0,1-3.83-1,5.14,5.14,0,0,1-2-2.87,10,10,0,0,1-.15-4.45,11.59,11.59,0,0,1,1.55-4.34,8.7,8.7,0,0,1,3-2.91A8.21,8.21,0,0,1,236.63,23.77Zm-.47,3A3.17,3.17,0,0,0,233.54,28a8.7,8.7,0,0,0-1.43,4,7.35,7.35,0,0,0,.15,4,2.21,2.21,0,0,0,2.21,1.28,3.14,3.14,0,0,0,2.6-1.28,8.9,8.9,0,0,0,1.44-4,7.35,7.35,0,0,0-.16-4,2.2,2.2,0,0,0-2.19-1.22Z"/><path class="cls-2" d="M258.11,39.92h-4.66l.15-10.85-3.36,10.85h-4.57V24.23h3.74l-.76,13.2,3.68-11.22H256V37.43l3.44-13.2H263Z"/><path class="cls-2" d="M274.65,24.23l-2,12.87h4.12l-.45,2.82H263.6l.45-2.82h4.56L270.2,27h-4.41l.45-2.81Zm-1.3-8A2.07,2.07,0,0,1,275,17a2,2,0,0,1,.41,1.68,2.66,2.66,0,0,1-1,1.7,2.71,2.71,0,0,1-1.88.68,2.1,2.1,0,0,1-1.68-.68,2,2,0,0,1-.42-1.7,2.7,2.7,0,0,1,.95-1.68,2.89,2.89,0,0,1,1.92-.73Z"/><path class="cls-2" d="M289.24,37.16a5.08,5.08,0,0,0,2-.38,10.52,10.52,0,0,0,1.91-1l1.41,2.55a10.84,10.84,0,0,1-2.73,1.45,9.29,9.29,0,0,1-3.26.57,7.44,7.44,0,0,1-4.07-1,5.47,5.47,0,0,1-2.25-2.89,8.79,8.79,0,0,1-.26-4.29,10.74,10.74,0,0,1,1.65-4.33,9.05,9.05,0,0,1,3.21-3,8.9,8.9,0,0,1,4.43-1.09,8.5,8.5,0,0,1,3,.48,6.6,6.6,0,0,1,2.29,1.43l-2.17,2.46a6,6,0,0,0-1.63-.92,5.36,5.36,0,0,0-1.86-.33,4.16,4.16,0,0,0-3,1.24,7,7,0,0,0-1.71,4,6.59,6.59,0,0,0,0,2.93,2.65,2.65,0,0,0,1.12,1.58A3.71,3.71,0,0,0,289.24,37.16Z"/><path class="cls-2" d="M304,36.82h8.13l-.91,3.1H298.7l.45-2.86,9.62-9.74h-7.41l.49-3.09h12.09l-.45,2.86Z"/><path class="cls-1" d="M314.68,45.38l.5-3.2H330l-.51,3.2Z"/><path class="cls-2" d="M13,56a3.79,3.79,0,0,1-.67-.06A4,4,0,0,1,9,51.34l8-48a4,4,0,0,1,8,1.32l-8,48A4,4,0,0,1,13,56Z"/><path class="cls-2" d="M37,40a4,4,0,0,1-2.83-1.17l-8-8a4,4,0,0,1,0-5.66h0l8-8a4,4,0,0,1,5.66,5.66L34.66,28l5.17,5.17A4,4,0,0,1,37,40Z"/><circle class="cls-1" cx="4" cy="34" r="4"/></svg>